;Layer: Drill PTH
;EasyEDA v6.4.7, 2020-10-28T14:34:13+00:00
;34375fc6649c45b8b31e222808ae9df9,aef87372a4e84f75ab74ab0294ea0b66,10
;Gerber Generator version 0.2
M48
METRIC,LZ,000.000
;Holesize 1 = 0.901 METRIC
T01C0.901
;Holesize 2 = 1.000 METRIC
T02C1.000
;Holesize 3 = 1.200 METRIC
T03C1.200
%
G05
G90
T01
X+021717Y+007620
X+060579Y+007493
X+065659Y+007493
X+080899Y+007493
X+091440Y+007493
X+096520Y+007493
X+111760Y+007493
X+127254Y+007620
X+134874Y+007620
X+142494Y+007493
X+048006Y+007493
X+009017Y+018669
X+086106Y+017018
X+072644Y+028448
X+072263Y+025781
X+077978Y+029337
X+081915Y+028448
X+024257Y+009398
X+083693Y+009144
X+114300Y+009652
X+144907Y+009271
X+091821Y+014478
X+091694Y+017145
X+096139Y+017145
X+096139Y+014478
X+110617Y+013843
X+108077Y+012700
X+115189Y+018034
X+112522Y+018415
X+151130Y+030099
X+151130Y+035941
X+078359Y+002921
X+139954Y+002667
X+109220Y+002921
X+063500Y+025400
X+075692Y+001270
X+106680Y+001270
X+137541Y+001270
X+017399Y+042672
X+017526Y+046482
X+042164Y+046609
X+067564Y+046228
X+100457Y+046228
X+042164Y+042926
X+067564Y+042672
X+115189Y+042799
X+119507Y+021844
X+115951Y+021844
X+139501Y+038481
X+120523Y+037465
X+151257Y+025019
X+146812Y+043561
X+076073Y+014732
X+025019Y+041021
X+076708Y+041910
X+047117Y+041275
X+080264Y+039751
X+052197Y+039497
X+031242Y+039370
X+054819Y+039497
X+055372Y+025400
X+060706Y+025400
X+060833Y+031369
X+067564Y+034290
X+075057Y+027051
X+113665Y+023368
X+109474Y+024892
X+105156Y+028067
X+111633Y+028067
X+112141Y+030861
X+109982Y+032766
X+112141Y+034671
X+108712Y+036957
X+093853Y+035560
X+096393Y+036068
X+098933Y+037211
X+101473Y+038227
X+105029Y+039243
X+093853Y+030607
X+096393Y+031496
X+098933Y+030734
X+101473Y+031496
X+103886Y+030480
X+093726Y+026289
X+096393Y+025527
X+098933Y+026289
X+101473Y+025527
X+104140Y+025654
X+145161Y+033401
X+101473Y+018669
X+151130Y+038608
X+103251Y+046228
X+103251Y+042672
X+068453Y+025400
X+079375Y+018415
X+083185Y+018415
X+083312Y+013716
X+070358Y+018542
X+140462Y+035941
X+006477Y+004953
X+009017Y+004953
X+011557Y+004953
X+014097Y+004953
X+016637Y+004953
X+019177Y+004953
X+021717Y+004953
X+024257Y+004953
X+035306Y+004945
X+037846Y+004945
X+040386Y+004945
X+042926Y+004945
X+045466Y+004945
X+048006Y+004945
X+050546Y+004945
X+060579Y+005080
X+063119Y+005080
X+065659Y+005080
X+068199Y+005080
X+070739Y+005080
X+073279Y+005080
X+075819Y+005080
X+078359Y+005080
X+080899Y+005080
X+083439Y+005080
X+091440Y+005207
X+093980Y+005207
X+096520Y+005207
X+099060Y+005207
X+101600Y+005207
X+104140Y+005207
X+106680Y+005207
X+109220Y+005207
X+111760Y+005207
X+114300Y+005207
X+122174Y+005207
X+124714Y+005207
X+127254Y+005207
X+129794Y+005207
X+132334Y+005207
X+134874Y+005207
X+137414Y+005207
X+139954Y+005207
X+142494Y+005207
X+145034Y+005207
X+058293Y+020955
X+058293Y+023495
X+060833Y+023495
X+060833Y+020955
X+063373Y+020955
X+063373Y+023495
X+065913Y+023495
X+065913Y+020955
X+068453Y+020955
X+068453Y+023495
X+070993Y+023495
X+070993Y+020955
X+073533Y+020955
X+073533Y+023495
X+076073Y+023495
X+076073Y+020955
X+078613Y+020955
X+078613Y+023495
X+081153Y+023495
X+081153Y+020955
X+083693Y+020955
X+083693Y+023495
X+086233Y+023495
X+086233Y+020955
X+088773Y+023495
X+088773Y+020955
X+091313Y+020955
X+091313Y+023495
X+093853Y+023495
X+093853Y+020955
X+096393Y+020955
X+096393Y+023495
X+098933Y+023495
X+098933Y+020955
X+101473Y+020955
X+101473Y+023495
X+104013Y+023495
X+104013Y+020955
X+106553Y+020955
X+106553Y+023495
X+127762Y+041021
X+127762Y+038481
X+127762Y+033401
X+127762Y+035941
X+127762Y+030861
X+127762Y+028321
X+127762Y+025781
X+127762Y+023241
X+136525Y+041021
X+136525Y+038481
X+136525Y+035941
X+142875Y+038481
X+142875Y+035941
X+142875Y+033401
X+142875Y+030861
X+148844Y+030861
X+148844Y+033401
X+148844Y+035941
X+148844Y+038481
X+148844Y+041021
X+154559Y+030861
X+154559Y+033401
X+154559Y+035941
X+154559Y+038481
X+154559Y+041021
X+143637Y+022860
X+143637Y+017653
X+143637Y+012700
X+151257Y+012700
X+151257Y+017780
X+151257Y+022860
X+107547Y+041129
X+110087Y+041129
X+112627Y+041129
X+115167Y+041129
X+117708Y+041130
X+120247Y+041129
X+122787Y+041129
X+065011Y+036744
X+067564Y+036757
X+070091Y+036744
X+072631Y+036744
X+075171Y+036744
X+077724Y+036757
X+080264Y+036757
X+042104Y+037379
X+044644Y+037380
X+047184Y+037380
X+049724Y+037380
X+052264Y+037380
X+014752Y+038014
X+017292Y+038015
X+019832Y+038015
X+022352Y+037973
X+024912Y+038015
X+027452Y+038015
X+029992Y+038015
X+019939Y+041402
X+076200Y+031369
X+099187Y+040259
X+105410Y+018542
X+009525Y+032893
X+002921Y+045466
X+035052Y+020193
X+059055Y+035179
X+085598Y+039370
X+086741Y+029083
X+138557Y+022987
X+153670Y+006350
X+112268Y+038481
X+150622Y+027559
X+072898Y+007620
X+063754Y+042164
X+133858Y+042926
X+134112Y+039370
X+142875Y+043561
X+142875Y+041021
X+140589Y+031750
X+132969Y+036703
X+131445Y+016891
X+131826Y+027813
X+134366Y+027813
X+136906Y+027813
X+139446Y+027813
X+151257Y+022860
X+143637Y+022860
X+151257Y+017780
X+143637Y+017780
X+142875Y+043561
X+142875Y+041021
T02
X+142875Y+038481
X+142875Y+035941
T03
X+142875Y+033401
X+142875Y+030861
M30
