G04 Layer: BottomSilkLayer*
G04 EasyEDA v6.4.7, 2020-10-28T14:34:13+00:00*
G04 34375fc6649c45b8b31e222808ae9df9,aef87372a4e84f75ab74ab0294ea0b66,10*
G04 Gerber Generator version 0.2*
G04 Scale: 100 percent, Rotated: No, Reflected: No *
G04 Dimensions in millimeters *
G04 leading zeros omitted , absolute positions ,3 integer and 3 decimal *
%FSLAX33Y33*%
%MOMM*%
G90*
D02*

%ADD10C,0.254000*%
%ADD11C,0.750011*%
%ADD14C,0.203200*%
%ADD24C,0.202999*%
%ADD25C,0.152400*%

%LPD*%
G54D10*
G01X149987Y23622D02*
G01X144907Y23622D01*
G01X144907Y23622D02*
G01X144907Y22860D01*
G01X144907Y22860D02*
G01X144907Y22098D01*
G01X144907Y22098D02*
G01X149987Y22098D01*
G01X149987Y22098D02*
G01X149987Y22860D01*
G01X149987Y22860D02*
G01X149987Y23622D01*
G01X144907Y22860D02*
G01X144653Y22860D01*
G01X149987Y22860D02*
G01X150241Y22860D01*
G01X149987Y18542D02*
G01X144907Y18542D01*
G01X144907Y18542D02*
G01X144907Y17780D01*
G01X144907Y17780D02*
G01X144907Y17018D01*
G01X144907Y17018D02*
G01X149987Y17018D01*
G01X149987Y17018D02*
G01X149987Y17780D01*
G01X149987Y17780D02*
G01X149987Y18542D01*
G01X144907Y17780D02*
G01X144653Y17780D01*
G01X149987Y17780D02*
G01X150241Y17780D01*
G54D14*
G01X155829Y31496D02*
G01X155829Y29591D01*
G01X153289Y29591D01*
G01X153289Y42291D01*
G01X155829Y42291D01*
G54D24*
G01X155829Y42291D02*
G01X155829Y31496D01*
G54D14*
G01X150114Y31496D02*
G01X150114Y29591D01*
G01X147574Y29591D01*
G01X147574Y42291D01*
G01X150114Y42291D01*
G54D24*
G01X150114Y42291D02*
G01X150114Y31496D01*
G54D14*
G01X135255Y40386D02*
G01X135255Y42291D01*
G01X137795Y42291D01*
G01X137795Y34671D01*
G01X135255Y34671D01*
G54D24*
G01X135255Y34671D02*
G01X135255Y40386D01*
G54D14*
G01X126492Y21971D02*
G01X129032Y21971D01*
G01X129032Y42291D01*
G01X126492Y42291D01*
G01X126492Y40386D01*
G54D24*
G01X126492Y21971D02*
G01X126492Y40386D01*
G54D14*
G01X82804Y6350D02*
G01X84709Y6350D01*
G01X84709Y3810D01*
G01X59309Y3810D01*
G01X59309Y6350D01*
G54D24*
G01X59309Y6350D02*
G01X82804Y6350D01*
G54D14*
G01X144399Y6477D02*
G01X146304Y6477D01*
G01X146304Y3937D01*
G01X120904Y3937D01*
G01X120904Y6477D01*
G54D24*
G01X120904Y6477D02*
G01X144399Y6477D01*
G54D14*
G01X113665Y6477D02*
G01X115570Y6477D01*
G01X115570Y3937D01*
G01X90170Y3937D01*
G01X90170Y6477D01*
G54D24*
G01X90170Y6477D02*
G01X113665Y6477D01*
G54D14*
G01X51816Y3675D02*
G01X51816Y6215D01*
G01X34036Y6215D01*
G01X34036Y3675D01*
G01X51816Y3675D01*
G01X5207Y6223D02*
G01X5207Y3683D01*
G01X25527Y3683D01*
G01X25527Y6223D01*
G01X23622Y6223D01*
G54D24*
G01X5207Y6223D02*
G01X23622Y6223D01*
G54D10*
G01X149987Y13462D02*
G01X144907Y13462D01*
G01X144907Y13462D02*
G01X144907Y12700D01*
G01X144907Y12700D02*
G01X144907Y11938D01*
G01X144907Y11938D02*
G01X149987Y11938D01*
G01X149987Y11938D02*
G01X149987Y12700D01*
G01X149987Y12700D02*
G01X149987Y13462D01*
G01X144907Y12700D02*
G01X144653Y12700D01*
G01X149987Y12700D02*
G01X150241Y12700D01*
G54D14*
G01X141605Y29591D02*
G01X144145Y29591D01*
G01X144145Y34671D01*
G01X141605Y34671D01*
G01X141605Y32766D01*
G54D24*
G01X141605Y29591D02*
G01X141605Y32766D01*
G54D14*
G01X22606Y10813D02*
G01X22606Y8873D01*
G01X22606Y10813D02*
G01X21867Y8873D01*
G01X21128Y10813D02*
G01X21867Y8873D01*
G01X21128Y10813D02*
G01X21128Y8873D01*
G01X19779Y10813D02*
G01X20518Y8873D01*
G01X19779Y10813D02*
G01X19040Y8873D01*
G01X20241Y9520D02*
G01X19317Y9520D01*
G01X18431Y10813D02*
G01X17138Y8873D01*
G01X17138Y10813D02*
G01X18431Y8873D01*
G01X16343Y10813D02*
G01X15327Y10813D01*
G01X15881Y10074D01*
G01X15604Y10074D01*
G01X15420Y9982D01*
G01X15327Y9889D01*
G01X15235Y9612D01*
G01X15235Y9428D01*
G01X15327Y9150D01*
G01X15512Y8966D01*
G01X15789Y8873D01*
G01X16066Y8873D01*
G01X16343Y8966D01*
G01X16436Y9058D01*
G01X16528Y9243D01*
G01X14625Y10444D02*
G01X14441Y10536D01*
G01X14163Y10813D01*
G01X14163Y8873D01*
G01X13092Y10813D02*
G01X13369Y10721D01*
G01X13462Y10536D01*
G01X13462Y10351D01*
G01X13369Y10166D01*
G01X13184Y10074D01*
G01X12815Y9982D01*
G01X12538Y9889D01*
G01X12353Y9705D01*
G01X12261Y9520D01*
G01X12261Y9243D01*
G01X12353Y9058D01*
G01X12446Y8966D01*
G01X12723Y8873D01*
G01X13092Y8873D01*
G01X13369Y8966D01*
G01X13462Y9058D01*
G01X13554Y9243D01*
G01X13554Y9520D01*
G01X13462Y9705D01*
G01X13277Y9889D01*
G01X13000Y9982D01*
G01X12630Y10074D01*
G01X12446Y10166D01*
G01X12353Y10351D01*
G01X12353Y10536D01*
G01X12446Y10721D01*
G01X12723Y10813D01*
G01X13092Y10813D01*
G01X10543Y10536D02*
G01X10635Y10721D01*
G01X10912Y10813D01*
G01X11097Y10813D01*
G01X11374Y10721D01*
G01X11559Y10444D01*
G01X11651Y9982D01*
G01X11651Y9520D01*
G01X11559Y9150D01*
G01X11374Y8966D01*
G01X11097Y8873D01*
G01X11005Y8873D01*
G01X10728Y8966D01*
G01X10543Y9150D01*
G01X10450Y9428D01*
G01X10450Y9520D01*
G01X10543Y9797D01*
G01X10728Y9982D01*
G01X11005Y10074D01*
G01X11097Y10074D01*
G01X11374Y9982D01*
G01X11559Y9797D01*
G01X11651Y9520D01*
G01X8732Y10813D02*
G01X9656Y10813D01*
G01X9748Y9982D01*
G01X9656Y10074D01*
G01X9379Y10166D01*
G01X9102Y10166D01*
G01X8825Y10074D01*
G01X8640Y9889D01*
G01X8548Y9612D01*
G01X8548Y9428D01*
G01X8640Y9150D01*
G01X8825Y8966D01*
G01X9102Y8873D01*
G01X9379Y8873D01*
G01X9656Y8966D01*
G01X9748Y9058D01*
G01X9841Y9243D01*
G01X49022Y10552D02*
G01X49022Y8612D01*
G01X49022Y10552D02*
G01X48190Y10552D01*
G01X47913Y10460D01*
G01X47821Y10367D01*
G01X47728Y10182D01*
G01X47728Y9905D01*
G01X47821Y9721D01*
G01X47913Y9628D01*
G01X48190Y9536D01*
G01X49022Y9536D01*
G01X47119Y10552D02*
G01X47119Y8612D01*
G01X47119Y10552D02*
G01X46380Y8612D01*
G01X45641Y10552D02*
G01X46380Y8612D01*
G01X45641Y10552D02*
G01X45641Y8612D01*
G01X43738Y10275D02*
G01X43923Y10460D01*
G01X44200Y10552D01*
G01X44570Y10552D01*
G01X44847Y10460D01*
G01X45031Y10275D01*
G01X45031Y10090D01*
G01X44939Y9905D01*
G01X44847Y9813D01*
G01X44662Y9721D01*
G01X44108Y9536D01*
G01X43923Y9444D01*
G01X43831Y9351D01*
G01X43738Y9166D01*
G01X43738Y8889D01*
G01X43923Y8705D01*
G01X44200Y8612D01*
G01X44570Y8612D01*
G01X44847Y8705D01*
G01X45031Y8889D01*
G01X42020Y10552D02*
G01X42944Y10552D01*
G01X43036Y9721D01*
G01X42944Y9813D01*
G01X42667Y9905D01*
G01X42390Y9905D01*
G01X42113Y9813D01*
G01X41928Y9628D01*
G01X41836Y9351D01*
G01X41836Y9166D01*
G01X41928Y8889D01*
G01X42113Y8705D01*
G01X42390Y8612D01*
G01X42667Y8612D01*
G01X42944Y8705D01*
G01X43036Y8797D01*
G01X43129Y8982D01*
G01X40672Y10552D02*
G01X40949Y10460D01*
G01X41134Y10182D01*
G01X41226Y9721D01*
G01X41226Y9444D01*
G01X41134Y8982D01*
G01X40949Y8705D01*
G01X40672Y8612D01*
G01X40487Y8612D01*
G01X40210Y8705D01*
G01X40025Y8982D01*
G01X39933Y9444D01*
G01X39933Y9721D01*
G01X40025Y10182D01*
G01X40210Y10460D01*
G01X40487Y10552D01*
G01X40672Y10552D01*
G01X38769Y10552D02*
G01X39046Y10460D01*
G01X39231Y10182D01*
G01X39323Y9721D01*
G01X39323Y9444D01*
G01X39231Y8982D01*
G01X39046Y8705D01*
G01X38769Y8612D01*
G01X38584Y8612D01*
G01X38307Y8705D01*
G01X38123Y8982D01*
G01X38030Y9444D01*
G01X38030Y9721D01*
G01X38123Y10182D01*
G01X38307Y10460D01*
G01X38584Y10552D01*
G01X38769Y10552D01*
G01X37236Y10552D02*
G01X36220Y10552D01*
G01X36774Y9813D01*
G01X36497Y9813D01*
G01X36312Y9721D01*
G01X36220Y9628D01*
G01X36128Y9351D01*
G01X36128Y9166D01*
G01X36220Y8889D01*
G01X36405Y8705D01*
G01X36682Y8612D01*
G01X36959Y8612D01*
G01X37236Y8705D01*
G01X37328Y8797D01*
G01X37421Y8982D01*
G01X95989Y8872D02*
G01X95250Y10810D01*
G01X95989Y8872D02*
G01X96728Y10810D01*
G01X95526Y10165D02*
G01X96451Y10165D01*
G01X97337Y8872D02*
G01X97337Y10810D01*
G01X97337Y8872D02*
G01X97983Y8872D01*
G01X98259Y8963D01*
G01X98445Y9149D01*
G01X98539Y9334D01*
G01X98630Y9611D01*
G01X98630Y10071D01*
G01X98539Y10350D01*
G01X98445Y10533D01*
G01X98259Y10718D01*
G01X97983Y10810D01*
G01X97337Y10810D01*
G01X100533Y9149D02*
G01X100347Y8963D01*
G01X100070Y8872D01*
G01X99702Y8872D01*
G01X99425Y8963D01*
G01X99240Y9149D01*
G01X99240Y9334D01*
G01X99331Y9517D01*
G01X99425Y9611D01*
G01X99608Y9702D01*
G01X100164Y9888D01*
G01X100347Y9979D01*
G01X100441Y10071D01*
G01X100533Y10256D01*
G01X100533Y10533D01*
G01X100347Y10718D01*
G01X100070Y10810D01*
G01X99702Y10810D01*
G01X99425Y10718D01*
G01X99240Y10533D01*
G01X101142Y9240D02*
G01X101328Y9149D01*
G01X101605Y8872D01*
G01X101605Y10810D01*
G01X102214Y9240D02*
G01X102400Y9149D01*
G01X102676Y8872D01*
G01X102676Y10810D01*
G01X103286Y9240D02*
G01X103469Y9149D01*
G01X103746Y8872D01*
G01X103746Y10810D01*
G01X105465Y8872D02*
G01X104541Y8872D01*
G01X104449Y9702D01*
G01X104541Y9611D01*
G01X104818Y9517D01*
G01X105095Y9517D01*
G01X105371Y9611D01*
G01X105557Y9794D01*
G01X105651Y10071D01*
G01X105651Y10256D01*
G01X105557Y10533D01*
G01X105371Y10718D01*
G01X105095Y10810D01*
G01X104818Y10810D01*
G01X104541Y10718D01*
G01X104449Y10627D01*
G01X104355Y10441D01*
G01X106260Y9979D02*
G01X107922Y9979D01*
G01X108531Y9240D02*
G01X108717Y9149D01*
G01X108993Y8872D01*
G01X108993Y10810D01*
G01X78508Y10685D02*
G01X79248Y8747D01*
G01X78508Y10685D02*
G01X77769Y8747D01*
G01X78971Y9392D02*
G01X78046Y9392D01*
G01X77160Y10685D02*
G01X77160Y8747D01*
G01X77160Y10685D02*
G01X76514Y10685D01*
G01X76238Y10594D01*
G01X76052Y10408D01*
G01X75958Y10223D01*
G01X75867Y9946D01*
G01X75867Y9486D01*
G01X75958Y9207D01*
G01X76052Y9024D01*
G01X76238Y8839D01*
G01X76514Y8747D01*
G01X77160Y8747D01*
G01X73964Y10408D02*
G01X74150Y10594D01*
G01X74427Y10685D01*
G01X74795Y10685D01*
G01X75072Y10594D01*
G01X75257Y10408D01*
G01X75257Y10223D01*
G01X75166Y10040D01*
G01X75072Y9946D01*
G01X74889Y9855D01*
G01X74333Y9669D01*
G01X74150Y9578D01*
G01X74056Y9486D01*
G01X73964Y9301D01*
G01X73964Y9024D01*
G01X74150Y8839D01*
G01X74427Y8747D01*
G01X74795Y8747D01*
G01X75072Y8839D01*
G01X75257Y9024D01*
G01X73355Y10317D02*
G01X73169Y10408D01*
G01X72892Y10685D01*
G01X72892Y8747D01*
G01X72283Y10317D02*
G01X72097Y10408D01*
G01X71821Y10685D01*
G01X71821Y8747D01*
G01X71211Y10317D02*
G01X71028Y10408D01*
G01X70751Y10685D01*
G01X70751Y8747D01*
G01X69032Y10685D02*
G01X69956Y10685D01*
G01X70048Y9855D01*
G01X69956Y9946D01*
G01X69679Y10040D01*
G01X69402Y10040D01*
G01X69126Y9946D01*
G01X68940Y9763D01*
G01X68846Y9486D01*
G01X68846Y9301D01*
G01X68940Y9024D01*
G01X69126Y8839D01*
G01X69402Y8747D01*
G01X69679Y8747D01*
G01X69956Y8839D01*
G01X70048Y8930D01*
G01X70142Y9116D01*
G01X68237Y9578D02*
G01X66575Y9578D01*
G01X65874Y10223D02*
G01X65874Y10317D01*
G01X65780Y10502D01*
G01X65689Y10594D01*
G01X65504Y10685D01*
G01X65135Y10685D01*
G01X64950Y10594D01*
G01X64858Y10502D01*
G01X64764Y10317D01*
G01X64764Y10132D01*
G01X64858Y9946D01*
G01X65041Y9669D01*
G01X65966Y8747D01*
G01X64673Y8747D01*
G01X140357Y11193D02*
G01X141097Y9255D01*
G01X140357Y11193D02*
G01X139618Y9255D01*
G01X140820Y9900D02*
G01X139895Y9900D01*
G01X139009Y11193D02*
G01X139009Y9255D01*
G01X139009Y11193D02*
G01X138363Y11193D01*
G01X138087Y11102D01*
G01X137901Y10916D01*
G01X137807Y10731D01*
G01X137716Y10454D01*
G01X137716Y9994D01*
G01X137807Y9715D01*
G01X137901Y9532D01*
G01X138087Y9347D01*
G01X138363Y9255D01*
G01X139009Y9255D01*
G01X135813Y10916D02*
G01X135999Y11102D01*
G01X136276Y11193D01*
G01X136644Y11193D01*
G01X136921Y11102D01*
G01X137106Y10916D01*
G01X137106Y10731D01*
G01X137015Y10548D01*
G01X136921Y10454D01*
G01X136738Y10363D01*
G01X136182Y10177D01*
G01X135999Y10086D01*
G01X135905Y9994D01*
G01X135813Y9809D01*
G01X135813Y9532D01*
G01X135999Y9347D01*
G01X136276Y9255D01*
G01X136644Y9255D01*
G01X136921Y9347D01*
G01X137106Y9532D01*
G01X135204Y10825D02*
G01X135018Y10916D01*
G01X134741Y11193D01*
G01X134741Y9255D01*
G01X134132Y10825D02*
G01X133946Y10916D01*
G01X133670Y11193D01*
G01X133670Y9255D01*
G01X133060Y10825D02*
G01X132877Y10916D01*
G01X132600Y11193D01*
G01X132600Y9255D01*
G01X130881Y11193D02*
G01X131805Y11193D01*
G01X131897Y10363D01*
G01X131805Y10454D01*
G01X131528Y10548D01*
G01X131251Y10548D01*
G01X130975Y10454D01*
G01X130789Y10271D01*
G01X130695Y9994D01*
G01X130695Y9809D01*
G01X130789Y9532D01*
G01X130975Y9347D01*
G01X131251Y9255D01*
G01X131528Y9255D01*
G01X131805Y9347D01*
G01X131897Y9438D01*
G01X131991Y9624D01*
G01X130086Y10086D02*
G01X128424Y10086D01*
G01X127629Y11193D02*
G01X126613Y11193D01*
G01X127167Y10454D01*
G01X126890Y10454D01*
G01X126707Y10363D01*
G01X126613Y10271D01*
G01X126522Y9994D01*
G01X126522Y9809D01*
G01X126613Y9532D01*
G01X126799Y9347D01*
G01X127076Y9255D01*
G01X127353Y9255D01*
G01X127629Y9347D01*
G01X127723Y9438D01*
G01X127815Y9624D01*
G01X157105Y38481D02*
G01X158060Y38481D01*
G01X157105Y38481D02*
G01X157105Y38071D01*
G01X157151Y37935D01*
G01X157196Y37890D01*
G01X157287Y37844D01*
G01X157378Y37844D01*
G01X157469Y37890D01*
G01X157515Y37935D01*
G01X157560Y38071D01*
G01X157560Y38481D01*
G01X157560Y38162D02*
G01X158060Y37844D01*
G01X157105Y37544D02*
G01X158060Y37544D01*
G01X157105Y37544D02*
G01X157105Y36953D01*
G01X157560Y37544D02*
G01X157560Y37181D01*
G01X158060Y37544D02*
G01X158060Y36953D01*
G01X157105Y36653D02*
G01X158060Y36290D01*
G01X157105Y35926D02*
G01X158060Y36290D01*
G01X157105Y35626D02*
G01X158060Y35626D01*
G01X157105Y35626D02*
G01X157105Y35217D01*
G01X157151Y35081D01*
G01X157196Y35035D01*
G01X157287Y34990D01*
G01X157424Y34990D01*
G01X157515Y35035D01*
G01X157560Y35081D01*
G01X157605Y35217D01*
G01X157605Y35626D01*
G01X157651Y34690D02*
G01X157651Y33871D01*
G01X157287Y33571D02*
G01X157242Y33481D01*
G01X157105Y33344D01*
G01X158060Y33344D01*
G01X152152Y38354D02*
G01X153107Y38354D01*
G01X152152Y38354D02*
G01X152152Y37944D01*
G01X152198Y37808D01*
G01X152243Y37763D01*
G01X152334Y37717D01*
G01X152425Y37717D01*
G01X152516Y37763D01*
G01X152562Y37808D01*
G01X152607Y37944D01*
G01X152607Y38354D01*
G01X152607Y38035D02*
G01X153107Y37717D01*
G01X152152Y37417D02*
G01X153107Y37417D01*
G01X152152Y37417D02*
G01X152152Y36826D01*
G01X152607Y37417D02*
G01X152607Y37054D01*
G01X153107Y37417D02*
G01X153107Y36826D01*
G01X152152Y36526D02*
G01X153107Y36163D01*
G01X152152Y35799D02*
G01X153107Y36163D01*
G01X152152Y35499D02*
G01X153107Y35499D01*
G01X152152Y35499D02*
G01X152152Y35090D01*
G01X152198Y34954D01*
G01X152243Y34908D01*
G01X152334Y34863D01*
G01X152471Y34863D01*
G01X152562Y34908D01*
G01X152607Y34954D01*
G01X152652Y35090D01*
G01X152652Y35499D01*
G01X152698Y34563D02*
G01X152698Y33744D01*
G01X152380Y33399D02*
G01X152334Y33399D01*
G01X152243Y33354D01*
G01X152198Y33308D01*
G01X152152Y33217D01*
G01X152152Y33035D01*
G01X152198Y32944D01*
G01X152243Y32899D01*
G01X152334Y32854D01*
G01X152425Y32854D01*
G01X152516Y32899D01*
G01X152652Y32990D01*
G01X153107Y33444D01*
G01X153107Y32808D01*
G01X147834Y34417D02*
G01X148789Y34417D01*
G01X148789Y34417D02*
G01X148789Y33871D01*
G01X147834Y33571D02*
G01X148789Y33571D01*
G01X147834Y33571D02*
G01X147834Y32980D01*
G01X148289Y33571D02*
G01X148289Y33207D01*
G01X148789Y33571D02*
G01X148789Y32980D01*
G01X147834Y32680D02*
G01X148789Y32680D01*
G01X147834Y32680D02*
G01X147834Y32362D01*
G01X147880Y32226D01*
G01X147971Y32135D01*
G01X148062Y32089D01*
G01X148198Y32044D01*
G01X148425Y32044D01*
G01X148562Y32089D01*
G01X148653Y32135D01*
G01X148744Y32226D01*
G01X148789Y32362D01*
G01X148789Y32680D01*
G01X147844Y41273D02*
G01X147753Y41364D01*
G01X147707Y41500D01*
G01X147707Y41682D01*
G01X147753Y41819D01*
G01X147844Y41910D01*
G01X147935Y41910D01*
G01X148026Y41864D01*
G01X148071Y41819D01*
G01X148117Y41728D01*
G01X148207Y41455D01*
G01X148253Y41364D01*
G01X148298Y41319D01*
G01X148389Y41273D01*
G01X148526Y41273D01*
G01X148617Y41364D01*
G01X148662Y41500D01*
G01X148662Y41682D01*
G01X148617Y41819D01*
G01X148526Y41910D01*
G01X147707Y40973D02*
G01X148662Y40973D01*
G01X147707Y40337D02*
G01X148662Y40337D01*
G01X148162Y40973D02*
G01X148162Y40337D01*
G01X147707Y39400D02*
G01X148662Y39855D01*
G01X147707Y40037D02*
G01X147707Y39400D01*
G01X147707Y38555D02*
G01X147707Y39010D01*
G01X148117Y39055D01*
G01X148071Y39010D01*
G01X148026Y38873D01*
G01X148026Y38737D01*
G01X148071Y38600D01*
G01X148162Y38510D01*
G01X148298Y38464D01*
G01X148389Y38464D01*
G01X148526Y38510D01*
G01X148617Y38600D01*
G01X148662Y38737D01*
G01X148662Y38873D01*
G01X148617Y39010D01*
G01X148571Y39055D01*
G01X148480Y39100D01*
G01X138446Y43813D02*
G01X138355Y43904D01*
G01X138309Y44040D01*
G01X138309Y44222D01*
G01X138355Y44359D01*
G01X138446Y44450D01*
G01X138537Y44450D01*
G01X138628Y44404D01*
G01X138673Y44359D01*
G01X138719Y44268D01*
G01X138809Y43995D01*
G01X138855Y43904D01*
G01X138900Y43859D01*
G01X138991Y43813D01*
G01X139128Y43813D01*
G01X139219Y43904D01*
G01X139264Y44040D01*
G01X139264Y44222D01*
G01X139219Y44359D01*
G01X139128Y44450D01*
G01X138309Y43513D02*
G01X139264Y43513D01*
G01X138309Y43513D02*
G01X138309Y42922D01*
G01X138764Y43513D02*
G01X138764Y43150D01*
G01X139264Y43513D02*
G01X139264Y42922D01*
G01X138309Y42622D02*
G01X139264Y42622D01*
G01X138309Y42622D02*
G01X139264Y41986D01*
G01X138309Y41986D02*
G01X139264Y41986D01*
G01X138309Y41413D02*
G01X138355Y41550D01*
G01X138491Y41640D01*
G01X138719Y41686D01*
G01X138855Y41686D01*
G01X139082Y41640D01*
G01X139219Y41550D01*
G01X139264Y41413D01*
G01X139264Y41322D01*
G01X139219Y41186D01*
G01X139082Y41095D01*
G01X138855Y41050D01*
G01X138719Y41050D01*
G01X138491Y41095D01*
G01X138355Y41186D01*
G01X138309Y41322D01*
G01X138309Y41413D01*
G01X138537Y40704D02*
G01X138491Y40704D01*
G01X138400Y40659D01*
G01X138355Y40613D01*
G01X138309Y40522D01*
G01X138309Y40340D01*
G01X138355Y40250D01*
G01X138400Y40204D01*
G01X138491Y40159D01*
G01X138582Y40159D01*
G01X138673Y40204D01*
G01X138809Y40295D01*
G01X139264Y40750D01*
G01X139264Y40113D01*
G01X138309Y39722D02*
G01X138309Y39222D01*
G01X138673Y39495D01*
G01X138673Y39359D01*
G01X138719Y39268D01*
G01X138764Y39222D01*
G01X138900Y39177D01*
G01X138991Y39177D01*
G01X139128Y39222D01*
G01X139219Y39313D01*
G01X139264Y39450D01*
G01X139264Y39586D01*
G01X139219Y39722D01*
G01X139173Y39768D01*
G01X139082Y39813D01*
G01X138537Y38831D02*
G01X138491Y38831D01*
G01X138400Y38786D01*
G01X138355Y38740D01*
G01X138309Y38650D01*
G01X138309Y38468D01*
G01X138355Y38377D01*
G01X138400Y38331D01*
G01X138491Y38286D01*
G01X138582Y38286D01*
G01X138673Y38331D01*
G01X138809Y38422D01*
G01X139264Y38877D01*
G01X139264Y38240D01*
G01X138817Y31623D02*
G01X139772Y31623D01*
G01X138817Y31623D02*
G01X138817Y31213D01*
G01X138863Y31077D01*
G01X138908Y31032D01*
G01X138999Y30986D01*
G01X139090Y30986D01*
G01X139181Y31032D01*
G01X139227Y31077D01*
G01X139272Y31213D01*
G01X139272Y31623D02*
G01X139272Y31213D01*
G01X139317Y31077D01*
G01X139363Y31032D01*
G01X139454Y30986D01*
G01X139590Y30986D01*
G01X139681Y31032D01*
G01X139727Y31077D01*
G01X139772Y31213D01*
G01X139772Y31623D01*
G01X138817Y30686D02*
G01X139499Y30686D01*
G01X139636Y30641D01*
G01X139727Y30550D01*
G01X139772Y30413D01*
G01X139772Y30323D01*
G01X139727Y30186D01*
G01X139636Y30095D01*
G01X139499Y30050D01*
G01X138817Y30050D01*
G01X138817Y29432D02*
G01X139772Y29432D01*
G01X138817Y29750D02*
G01X138817Y29113D01*
G01X138817Y28495D02*
G01X139772Y28495D01*
G01X138817Y28813D02*
G01X138817Y28177D01*
G01X138817Y27604D02*
G01X138863Y27695D01*
G01X138954Y27786D01*
G01X139045Y27832D01*
G01X139181Y27877D01*
G01X139408Y27877D01*
G01X139545Y27832D01*
G01X139636Y27786D01*
G01X139727Y27695D01*
G01X139772Y27604D01*
G01X139772Y27423D01*
G01X139727Y27332D01*
G01X139636Y27241D01*
G01X139545Y27195D01*
G01X139408Y27150D01*
G01X139181Y27150D01*
G01X139045Y27195D01*
G01X138954Y27241D01*
G01X138863Y27332D01*
G01X138817Y27423D01*
G01X138817Y27604D01*
G01X138817Y26850D02*
G01X139772Y26850D01*
G01X138817Y26850D02*
G01X139772Y26213D01*
G01X138817Y26213D02*
G01X139772Y26213D01*
G01X138954Y25277D02*
G01X138863Y25368D01*
G01X138817Y25504D01*
G01X138817Y25686D01*
G01X138863Y25823D01*
G01X138954Y25913D01*
G01X139045Y25913D01*
G01X139136Y25868D01*
G01X139181Y25823D01*
G01X139227Y25732D01*
G01X139317Y25459D01*
G01X139363Y25368D01*
G01X139408Y25323D01*
G01X139499Y25277D01*
G01X139636Y25277D01*
G01X139727Y25368D01*
G01X139772Y25504D01*
G01X139772Y25686D01*
G01X139727Y25823D01*
G01X139636Y25913D01*
G54D25*
G01X147343Y27061D02*
G01X146771Y27061D01*
G01X147083Y26645D01*
G01X146927Y26645D01*
G01X146823Y26593D01*
G01X146771Y26541D01*
G01X146719Y26385D01*
G01X146719Y26282D01*
G01X146771Y26126D01*
G01X146875Y26022D01*
G01X147031Y25970D01*
G01X147187Y25970D01*
G01X147343Y26022D01*
G01X147395Y26074D01*
G01X147447Y26178D01*
G01X146324Y26230D02*
G01X146376Y26178D01*
G01X146324Y26126D01*
G01X146272Y26178D01*
G01X146324Y26230D01*
G01X145826Y27061D02*
G01X145254Y27061D01*
G01X145566Y26645D01*
G01X145410Y26645D01*
G01X145306Y26593D01*
G01X145254Y26541D01*
G01X145202Y26385D01*
G01X145202Y26282D01*
G01X145254Y26126D01*
G01X145358Y26022D01*
G01X145514Y25970D01*
G01X145670Y25970D01*
G01X145826Y26022D01*
G01X145877Y26074D01*
G01X145929Y26178D01*
G01X144859Y27061D02*
G01X144859Y25970D01*
G01X144340Y26697D02*
G01X144859Y26178D01*
G01X144651Y26385D02*
G01X144288Y25970D01*
G01X147447Y25283D02*
G01X147447Y24192D01*
G01X147447Y25283D02*
G01X146979Y25283D01*
G01X146823Y25231D01*
G01X146771Y25179D01*
G01X146719Y25075D01*
G01X146719Y24971D01*
G01X146771Y24867D01*
G01X146823Y24815D01*
G01X146979Y24763D01*
G01X147447Y24763D01*
G01X147083Y24763D02*
G01X146719Y24192D01*
G01X146376Y25075D02*
G01X146272Y25127D01*
G01X146116Y25283D01*
G01X146116Y24192D01*
G01X147343Y21981D02*
G01X146771Y21981D01*
G01X147083Y21565D01*
G01X146927Y21565D01*
G01X146823Y21513D01*
G01X146771Y21461D01*
G01X146719Y21305D01*
G01X146719Y21202D01*
G01X146771Y21046D01*
G01X146875Y20942D01*
G01X147031Y20890D01*
G01X147187Y20890D01*
G01X147343Y20942D01*
G01X147395Y20994D01*
G01X147447Y21098D01*
G01X146324Y21150D02*
G01X146376Y21098D01*
G01X146324Y21046D01*
G01X146272Y21098D01*
G01X146324Y21150D01*
G01X145826Y21981D02*
G01X145254Y21981D01*
G01X145566Y21565D01*
G01X145410Y21565D01*
G01X145306Y21513D01*
G01X145254Y21461D01*
G01X145202Y21305D01*
G01X145202Y21202D01*
G01X145254Y21046D01*
G01X145358Y20942D01*
G01X145514Y20890D01*
G01X145670Y20890D01*
G01X145826Y20942D01*
G01X145877Y20994D01*
G01X145929Y21098D01*
G01X144859Y21981D02*
G01X144859Y20890D01*
G01X144340Y21617D02*
G01X144859Y21098D01*
G01X144651Y21305D02*
G01X144288Y20890D01*
G01X147447Y20203D02*
G01X147447Y19112D01*
G01X147447Y20203D02*
G01X146979Y20203D01*
G01X146823Y20151D01*
G01X146771Y20099D01*
G01X146719Y19995D01*
G01X146719Y19891D01*
G01X146771Y19787D01*
G01X146823Y19735D01*
G01X146979Y19683D01*
G01X147447Y19683D01*
G01X147083Y19683D02*
G01X146719Y19112D01*
G01X146324Y19943D02*
G01X146324Y19995D01*
G01X146272Y20099D01*
G01X146220Y20151D01*
G01X146116Y20203D01*
G01X145909Y20203D01*
G01X145805Y20151D01*
G01X145753Y20099D01*
G01X145701Y19995D01*
G01X145701Y19891D01*
G01X145753Y19787D01*
G01X145857Y19631D01*
G01X146376Y19112D01*
G01X145649Y19112D01*
G01X157670Y41333D02*
G01X158761Y41333D01*
G01X157670Y41333D02*
G01X157670Y40865D01*
G01X157722Y40710D01*
G01X157774Y40658D01*
G01X157878Y40606D01*
G01X157982Y40606D01*
G01X158086Y40658D01*
G01X158138Y40710D01*
G01X158190Y40865D01*
G01X158190Y41333D01*
G01X158190Y40969D02*
G01X158761Y40606D01*
G01X157670Y40263D02*
G01X158761Y40263D01*
G01X157670Y40263D02*
G01X157670Y39587D01*
G01X158190Y40263D02*
G01X158190Y39847D01*
G01X158761Y40263D02*
G01X158761Y39587D01*
G01X157670Y39244D02*
G01X158761Y38829D01*
G01X157670Y38413D02*
G01X158761Y38829D01*
G01X157670Y38070D02*
G01X158761Y38070D01*
G01X157670Y38070D02*
G01X157670Y37603D01*
G01X157722Y37447D01*
G01X157774Y37395D01*
G01X157878Y37343D01*
G01X158034Y37343D01*
G01X158138Y37395D01*
G01X158190Y37447D01*
G01X158242Y37603D01*
G01X158242Y38070D01*
G01X157878Y36200D02*
G01X157826Y36096D01*
G01X157670Y35940D01*
G01X158761Y35940D01*
G01X157823Y29845D02*
G01X156869Y29845D01*
G01X157823Y30481D02*
G01X156869Y30481D01*
G01X157369Y29845D02*
G01X157369Y30481D01*
G01X157596Y30826D02*
G01X157641Y30826D01*
G01X157732Y30872D01*
G01X157778Y30917D01*
G01X157823Y31008D01*
G01X157823Y31190D01*
G01X157778Y31281D01*
G01X157732Y31326D01*
G01X157641Y31372D01*
G01X157550Y31372D01*
G01X157459Y31326D01*
G01X157323Y31235D01*
G01X156869Y30781D01*
G01X156869Y31417D01*
G01X151954Y41800D02*
G01X153045Y41800D01*
G01X151954Y41800D02*
G01X151954Y41333D01*
G01X152006Y41177D01*
G01X152058Y41125D01*
G01X152162Y41073D01*
G01X152266Y41073D01*
G01X152370Y41125D01*
G01X152422Y41177D01*
G01X152474Y41333D01*
G01X152474Y41800D01*
G01X152474Y41437D02*
G01X153045Y41073D01*
G01X151954Y40730D02*
G01X153045Y40730D01*
G01X151954Y40730D02*
G01X151954Y40055D01*
G01X152474Y40730D02*
G01X152474Y40314D01*
G01X153045Y40730D02*
G01X153045Y40055D01*
G01X151954Y39712D02*
G01X153045Y39296D01*
G01X151954Y38880D02*
G01X153045Y39296D01*
G01X151954Y38538D02*
G01X153045Y38538D01*
G01X151954Y38538D02*
G01X151954Y38070D01*
G01X152006Y37914D01*
G01X152058Y37862D01*
G01X152162Y37810D01*
G01X152318Y37810D01*
G01X152422Y37862D01*
G01X152474Y37914D01*
G01X152526Y38070D01*
G01X152526Y38538D01*
G01X152214Y36615D02*
G01X152162Y36615D01*
G01X152058Y36563D01*
G01X152006Y36511D01*
G01X151954Y36407D01*
G01X151954Y36200D01*
G01X152006Y36096D01*
G01X152058Y36044D01*
G01X152162Y35992D01*
G01X152266Y35992D01*
G01X152370Y36044D01*
G01X152526Y36148D01*
G01X153045Y36667D01*
G01X153045Y35940D01*
G01X151567Y29845D02*
G01X150613Y29845D01*
G01X151567Y30481D02*
G01X150613Y30481D01*
G01X151113Y29845D02*
G01X151113Y30481D01*
G01X151567Y31235D02*
G01X150931Y30781D01*
G01X150931Y31463D01*
G01X151567Y31235D02*
G01X150613Y31235D01*
G01X132479Y37753D02*
G01X132375Y37857D01*
G01X132323Y38013D01*
G01X132323Y38221D01*
G01X132375Y38377D01*
G01X132479Y38481D01*
G01X132583Y38481D01*
G01X132687Y38429D01*
G01X132739Y38377D01*
G01X132791Y38273D01*
G01X132895Y37961D01*
G01X132947Y37857D01*
G01X132999Y37805D01*
G01X133102Y37753D01*
G01X133258Y37753D01*
G01X133362Y37857D01*
G01X133414Y38013D01*
G01X133414Y38221D01*
G01X133362Y38377D01*
G01X133258Y38481D01*
G01X132323Y37410D02*
G01X133414Y37410D01*
G01X132323Y37410D02*
G01X132323Y36735D01*
G01X132843Y37410D02*
G01X132843Y36995D01*
G01X133414Y37410D02*
G01X133414Y36735D01*
G01X132323Y36392D02*
G01X133414Y36392D01*
G01X132323Y36392D02*
G01X133414Y35665D01*
G01X132323Y35665D02*
G01X133414Y35665D01*
G01X132323Y35010D02*
G01X132375Y35166D01*
G01X132531Y35270D01*
G01X132791Y35322D01*
G01X132947Y35322D01*
G01X133206Y35270D01*
G01X133362Y35166D01*
G01X133414Y35010D01*
G01X133414Y34906D01*
G01X133362Y34750D01*
G01X133206Y34646D01*
G01X132947Y34594D01*
G01X132791Y34594D01*
G01X132531Y34646D01*
G01X132375Y34750D01*
G01X132323Y34906D01*
G01X132323Y35010D01*
G01X132583Y34199D02*
G01X132531Y34199D01*
G01X132427Y34147D01*
G01X132375Y34096D01*
G01X132323Y33992D01*
G01X132323Y33784D01*
G01X132375Y33680D01*
G01X132427Y33628D01*
G01X132531Y33576D01*
G01X132635Y33576D01*
G01X132739Y33628D01*
G01X132895Y33732D01*
G01X133414Y34251D01*
G01X133414Y33524D01*
G01X132323Y33077D02*
G01X132323Y32506D01*
G01X132739Y32817D01*
G01X132739Y32662D01*
G01X132791Y32558D01*
G01X132843Y32506D01*
G01X132999Y32454D01*
G01X133102Y32454D01*
G01X133258Y32506D01*
G01X133362Y32610D01*
G01X133414Y32766D01*
G01X133414Y32921D01*
G01X133362Y33077D01*
G01X133310Y33129D01*
G01X133206Y33181D01*
G01X132583Y32059D02*
G01X132531Y32059D01*
G01X132427Y32007D01*
G01X132375Y31955D01*
G01X132323Y31851D01*
G01X132323Y31643D01*
G01X132375Y31539D01*
G01X132427Y31487D01*
G01X132531Y31435D01*
G01X132635Y31435D01*
G01X132739Y31487D01*
G01X132895Y31591D01*
G01X133414Y32111D01*
G01X133414Y31384D01*
G01X138309Y36195D02*
G01X139264Y36195D01*
G01X138309Y36195D02*
G01X138309Y35785D01*
G01X138355Y35649D01*
G01X138400Y35604D01*
G01X138491Y35558D01*
G01X138628Y35558D01*
G01X138719Y35604D01*
G01X138764Y35649D01*
G01X138809Y35785D01*
G01X138809Y36195D01*
G01X138491Y35258D02*
G01X138446Y35167D01*
G01X138309Y35031D01*
G01X139264Y35031D01*
G01X138491Y34731D02*
G01X138446Y34640D01*
G01X138309Y34504D01*
G01X139264Y34504D01*
G01X123560Y32131D02*
G01X124650Y32131D01*
G01X123560Y32131D02*
G01X123560Y31663D01*
G01X123611Y31508D01*
G01X123664Y31455D01*
G01X123769Y31404D01*
G01X123873Y31404D01*
G01X123977Y31455D01*
G01X124028Y31508D01*
G01X124079Y31663D01*
G01X124079Y32131D02*
G01X124079Y31663D01*
G01X124132Y31508D01*
G01X124183Y31455D01*
G01X124287Y31404D01*
G01X124444Y31404D01*
G01X124548Y31455D01*
G01X124599Y31508D01*
G01X124650Y31663D01*
G01X124650Y32131D01*
G01X123924Y31061D02*
G01X124444Y31061D01*
G01X124599Y31008D01*
G01X124650Y30904D01*
G01X124650Y30749D01*
G01X124599Y30645D01*
G01X124444Y30490D01*
G01X123924Y30490D02*
G01X124650Y30490D01*
G01X123560Y29989D02*
G01X124444Y29989D01*
G01X124599Y29938D01*
G01X124650Y29834D01*
G01X124650Y29730D01*
G01X123924Y30147D02*
G01X123924Y29781D01*
G01X123560Y29232D02*
G01X124444Y29232D01*
G01X124599Y29179D01*
G01X124650Y29075D01*
G01X124650Y28971D01*
G01X123924Y29387D02*
G01X123924Y29024D01*
G01X123924Y28369D02*
G01X123977Y28473D01*
G01X124079Y28577D01*
G01X124236Y28628D01*
G01X124340Y28628D01*
G01X124495Y28577D01*
G01X124599Y28473D01*
G01X124650Y28369D01*
G01X124650Y28214D01*
G01X124599Y28110D01*
G01X124495Y28006D01*
G01X124340Y27952D01*
G01X124236Y27952D01*
G01X124079Y28006D01*
G01X123977Y28110D01*
G01X123924Y28214D01*
G01X123924Y28369D01*
G01X123924Y27609D02*
G01X124650Y27609D01*
G01X124132Y27609D02*
G01X123977Y27454D01*
G01X123924Y27350D01*
G01X123924Y27195D01*
G01X123977Y27091D01*
G01X124132Y27038D01*
G01X124650Y27038D01*
G01X124079Y26123D02*
G01X123977Y26177D01*
G01X123924Y26332D01*
G01X123924Y26489D01*
G01X123977Y26644D01*
G01X124079Y26695D01*
G01X124183Y26644D01*
G01X124236Y26540D01*
G01X124287Y26281D01*
G01X124340Y26177D01*
G01X124444Y26123D01*
G01X124495Y26123D01*
G01X124599Y26177D01*
G01X124650Y26332D01*
G01X124650Y26489D01*
G01X124599Y26644D01*
G01X124495Y26695D01*
G01X129402Y23876D02*
G01X130492Y23876D01*
G01X129402Y23876D02*
G01X129402Y23408D01*
G01X129453Y23253D01*
G01X129506Y23200D01*
G01X129611Y23149D01*
G01X129766Y23149D01*
G01X129870Y23200D01*
G01X129921Y23253D01*
G01X129974Y23408D01*
G01X129974Y23876D01*
G01X129402Y22285D02*
G01X130129Y22806D01*
G01X130129Y22026D01*
G01X129402Y22285D02*
G01X130492Y22285D01*
G01X71592Y9281D02*
G01X72009Y8191D01*
G01X71592Y9281D02*
G01X71178Y8191D01*
G01X71854Y8554D02*
G01X71333Y8554D01*
G01X70835Y9281D02*
G01X70835Y8191D01*
G01X70835Y9281D02*
G01X70472Y9281D01*
G01X70314Y9230D01*
G01X70210Y9126D01*
G01X70159Y9022D01*
G01X70106Y8864D01*
G01X70106Y8605D01*
G01X70159Y8450D01*
G01X70210Y8346D01*
G01X70314Y8242D01*
G01X70472Y8191D01*
G01X70835Y8191D01*
G01X69037Y9126D02*
G01X69141Y9230D01*
G01X69296Y9281D01*
G01X69504Y9281D01*
G01X69659Y9230D01*
G01X69763Y9126D01*
G01X69763Y9022D01*
G01X69712Y8917D01*
G01X69659Y8864D01*
G01X69557Y8813D01*
G01X69245Y8709D01*
G01X69141Y8658D01*
G01X69088Y8605D01*
G01X69037Y8501D01*
G01X69037Y8346D01*
G01X69141Y8242D01*
G01X69296Y8191D01*
G01X69504Y8191D01*
G01X69659Y8242D01*
G01X69763Y8346D01*
G01X68694Y9072D02*
G01X68590Y9126D01*
G01X68435Y9281D01*
G01X68435Y8191D01*
G01X68092Y9072D02*
G01X67988Y9126D01*
G01X67830Y9281D01*
G01X67830Y8191D01*
G01X67487Y9072D02*
G01X67386Y9126D01*
G01X67228Y9281D01*
G01X67228Y8191D01*
G01X66263Y9281D02*
G01X66781Y9281D01*
G01X66835Y8813D01*
G01X66781Y8864D01*
G01X66626Y8917D01*
G01X66471Y8917D01*
G01X66314Y8864D01*
G01X66210Y8762D01*
G01X66159Y8605D01*
G01X66159Y8501D01*
G01X66210Y8346D01*
G01X66314Y8242D01*
G01X66471Y8191D01*
G01X66626Y8191D01*
G01X66781Y8242D01*
G01X66835Y8293D01*
G01X66885Y8397D01*
G01X65016Y9072D02*
G01X64912Y9126D01*
G01X64757Y9281D01*
G01X64757Y8191D01*
G01X63248Y9489D02*
G01X63352Y9385D01*
G01X63456Y9230D01*
G01X63560Y9022D01*
G01X63614Y8762D01*
G01X63614Y8554D01*
G01X63560Y8293D01*
G01X63456Y8087D01*
G01X63352Y7929D01*
G01X63248Y7825D01*
G01X62905Y9281D02*
G01X62905Y8191D01*
G01X62905Y9281D02*
G01X62438Y9281D01*
G01X62283Y9230D01*
G01X62230Y9176D01*
G01X62179Y9072D01*
G01X62179Y8968D01*
G01X62230Y8864D01*
G01X62283Y8813D01*
G01X62438Y8762D01*
G01X62905Y8762D01*
G01X62542Y8762D02*
G01X62179Y8191D01*
G01X61836Y9281D02*
G01X61836Y8191D01*
G01X61836Y9281D02*
G01X61160Y9281D01*
G01X61836Y8762D02*
G01X61419Y8762D01*
G01X61836Y8191D02*
G01X61160Y8191D01*
G01X60817Y9281D02*
G01X60401Y8191D01*
G01X59987Y9281D02*
G01X60401Y8191D01*
G01X59644Y9281D02*
G01X59644Y8191D01*
G01X59644Y9281D02*
G01X59176Y9281D01*
G01X59019Y9230D01*
G01X58968Y9176D01*
G01X58915Y9072D01*
G01X58915Y8917D01*
G01X58968Y8813D01*
G01X59019Y8762D01*
G01X59176Y8709D01*
G01X59644Y8709D01*
G01X57772Y9072D02*
G01X57670Y9126D01*
G01X57513Y9281D01*
G01X57513Y8191D01*
G01X57170Y9489D02*
G01X57066Y9385D01*
G01X56962Y9230D01*
G01X56857Y9022D01*
G01X56807Y8762D01*
G01X56807Y8554D01*
G01X56857Y8293D01*
G01X56962Y8087D01*
G01X57066Y7929D01*
G01X57170Y7825D01*
G01X72009Y7503D02*
G01X72009Y6413D01*
G01X72009Y7503D02*
G01X71541Y7503D01*
G01X71386Y7452D01*
G01X71333Y7399D01*
G01X71282Y7294D01*
G01X71282Y7139D01*
G01X71333Y7035D01*
G01X71386Y6985D01*
G01X71541Y6931D01*
G01X72009Y6931D01*
G01X70210Y7503D02*
G01X70731Y6413D01*
G01X70939Y7503D02*
G01X70210Y7503D01*
G01X133187Y9408D02*
G01X133604Y8318D01*
G01X133187Y9408D02*
G01X132773Y8318D01*
G01X133449Y8681D02*
G01X132928Y8681D01*
G01X132430Y9408D02*
G01X132430Y8318D01*
G01X132430Y9408D02*
G01X132067Y9408D01*
G01X131909Y9357D01*
G01X131805Y9253D01*
G01X131754Y9149D01*
G01X131701Y8991D01*
G01X131701Y8732D01*
G01X131754Y8577D01*
G01X131805Y8473D01*
G01X131909Y8369D01*
G01X132067Y8318D01*
G01X132430Y8318D01*
G01X130632Y9253D02*
G01X130736Y9357D01*
G01X130891Y9408D01*
G01X131099Y9408D01*
G01X131254Y9357D01*
G01X131358Y9253D01*
G01X131358Y9149D01*
G01X131307Y9044D01*
G01X131254Y8991D01*
G01X131152Y8940D01*
G01X130840Y8836D01*
G01X130736Y8785D01*
G01X130683Y8732D01*
G01X130632Y8628D01*
G01X130632Y8473D01*
G01X130736Y8369D01*
G01X130891Y8318D01*
G01X131099Y8318D01*
G01X131254Y8369D01*
G01X131358Y8473D01*
G01X130289Y9199D02*
G01X130185Y9253D01*
G01X130030Y9408D01*
G01X130030Y8318D01*
G01X129687Y9199D02*
G01X129583Y9253D01*
G01X129425Y9408D01*
G01X129425Y8318D01*
G01X129082Y9199D02*
G01X128981Y9253D01*
G01X128823Y9408D01*
G01X128823Y8318D01*
G01X127858Y9408D02*
G01X128376Y9408D01*
G01X128430Y8940D01*
G01X128376Y8991D01*
G01X128221Y9044D01*
G01X128066Y9044D01*
G01X127909Y8991D01*
G01X127805Y8890D01*
G01X127754Y8732D01*
G01X127754Y8628D01*
G01X127805Y8473D01*
G01X127909Y8369D01*
G01X128066Y8318D01*
G01X128221Y8318D01*
G01X128376Y8369D01*
G01X128430Y8420D01*
G01X128480Y8524D01*
G01X126558Y9149D02*
G01X126558Y9199D01*
G01X126507Y9304D01*
G01X126453Y9357D01*
G01X126352Y9408D01*
G01X126144Y9408D01*
G01X126039Y9357D01*
G01X125986Y9304D01*
G01X125935Y9199D01*
G01X125935Y9095D01*
G01X125986Y8991D01*
G01X126090Y8836D01*
G01X126611Y8318D01*
G01X125882Y8318D01*
G01X124376Y9616D02*
G01X124480Y9512D01*
G01X124584Y9357D01*
G01X124688Y9149D01*
G01X124739Y8890D01*
G01X124739Y8681D01*
G01X124688Y8420D01*
G01X124584Y8214D01*
G01X124480Y8056D01*
G01X124376Y7952D01*
G01X123306Y9253D02*
G01X123410Y9357D01*
G01X123565Y9408D01*
G01X123774Y9408D01*
G01X123929Y9357D01*
G01X124033Y9253D01*
G01X124033Y9149D01*
G01X123982Y9044D01*
G01X123929Y8991D01*
G01X123825Y8940D01*
G01X123515Y8836D01*
G01X123410Y8785D01*
G01X123357Y8732D01*
G01X123306Y8628D01*
G01X123306Y8473D01*
G01X123410Y8369D01*
G01X123565Y8318D01*
G01X123774Y8318D01*
G01X123929Y8369D01*
G01X124033Y8473D01*
G01X122963Y9408D02*
G01X122963Y8318D01*
G01X122963Y9408D02*
G01X122288Y9408D01*
G01X122963Y8890D02*
G01X122547Y8890D01*
G01X122963Y8318D02*
G01X122288Y8318D01*
G01X121945Y9408D02*
G01X121945Y8318D01*
G01X121945Y9408D02*
G01X121218Y8318D01*
G01X121218Y9408D02*
G01X121218Y8318D01*
G01X120563Y9408D02*
G01X120718Y9357D01*
G01X120822Y9199D01*
G01X120876Y8940D01*
G01X120876Y8785D01*
G01X120822Y8524D01*
G01X120718Y8369D01*
G01X120563Y8318D01*
G01X120459Y8318D01*
G01X120304Y8369D01*
G01X120200Y8524D01*
G01X120147Y8785D01*
G01X120147Y8940D01*
G01X120200Y9199D01*
G01X120304Y9357D01*
G01X120459Y9408D01*
G01X120563Y9408D01*
G01X119753Y9149D02*
G01X119753Y9199D01*
G01X119700Y9304D01*
G01X119649Y9357D01*
G01X119545Y9408D01*
G01X119336Y9408D01*
G01X119232Y9357D01*
G01X119181Y9304D01*
G01X119128Y9199D01*
G01X119128Y9095D01*
G01X119181Y8991D01*
G01X119286Y8836D01*
G01X119804Y8318D01*
G01X119077Y8318D01*
G01X118630Y9408D02*
G01X118059Y9408D01*
G01X118371Y8991D01*
G01X118214Y8991D01*
G01X118110Y8940D01*
G01X118059Y8890D01*
G01X118008Y8732D01*
G01X118008Y8628D01*
G01X118059Y8473D01*
G01X118163Y8369D01*
G01X118318Y8318D01*
G01X118475Y8318D01*
G01X118630Y8369D01*
G01X118681Y8420D01*
G01X118734Y8524D01*
G01X117612Y9149D02*
G01X117612Y9199D01*
G01X117561Y9304D01*
G01X117508Y9357D01*
G01X117403Y9408D01*
G01X117195Y9408D01*
G01X117094Y9357D01*
G01X117040Y9304D01*
G01X116989Y9199D01*
G01X116989Y9095D01*
G01X117040Y8991D01*
G01X117144Y8836D01*
G01X117665Y8318D01*
G01X116936Y8318D01*
G01X116593Y9616D02*
G01X116489Y9512D01*
G01X116385Y9357D01*
G01X116281Y9149D01*
G01X116230Y8890D01*
G01X116230Y8681D01*
G01X116281Y8420D01*
G01X116385Y8214D01*
G01X116489Y8056D01*
G01X116593Y7952D01*
G01X133604Y7630D02*
G01X133604Y6540D01*
G01X133604Y7630D02*
G01X133136Y7630D01*
G01X132981Y7579D01*
G01X132928Y7526D01*
G01X132877Y7421D01*
G01X132877Y7266D01*
G01X132928Y7162D01*
G01X132981Y7112D01*
G01X133136Y7058D01*
G01X133604Y7058D01*
G01X132273Y7630D02*
G01X132430Y7579D01*
G01X132481Y7475D01*
G01X132481Y7371D01*
G01X132430Y7266D01*
G01X132326Y7213D01*
G01X132118Y7162D01*
G01X131963Y7112D01*
G01X131859Y7007D01*
G01X131805Y6903D01*
G01X131805Y6746D01*
G01X131859Y6642D01*
G01X131909Y6591D01*
G01X132067Y6540D01*
G01X132273Y6540D01*
G01X132430Y6591D01*
G01X132481Y6642D01*
G01X132534Y6746D01*
G01X132534Y6903D01*
G01X132481Y7007D01*
G01X132377Y7112D01*
G01X132222Y7162D01*
G01X132013Y7213D01*
G01X131909Y7266D01*
G01X131859Y7371D01*
G01X131859Y7475D01*
G01X131909Y7579D01*
G01X132067Y7630D01*
G01X132273Y7630D01*
G01X102453Y9408D02*
G01X102870Y8318D01*
G01X102453Y9408D02*
G01X102039Y8318D01*
G01X102715Y8681D02*
G01X102194Y8681D01*
G01X101696Y9408D02*
G01X101696Y8318D01*
G01X101696Y9408D02*
G01X101333Y9408D01*
G01X101175Y9357D01*
G01X101071Y9253D01*
G01X101020Y9149D01*
G01X100967Y8991D01*
G01X100967Y8732D01*
G01X101020Y8577D01*
G01X101071Y8473D01*
G01X101175Y8369D01*
G01X101333Y8318D01*
G01X101696Y8318D01*
G01X99898Y9253D02*
G01X100002Y9357D01*
G01X100157Y9408D01*
G01X100365Y9408D01*
G01X100520Y9357D01*
G01X100624Y9253D01*
G01X100624Y9149D01*
G01X100573Y9044D01*
G01X100520Y8991D01*
G01X100418Y8940D01*
G01X100106Y8836D01*
G01X100002Y8785D01*
G01X99949Y8732D01*
G01X99898Y8628D01*
G01X99898Y8473D01*
G01X100002Y8369D01*
G01X100157Y8318D01*
G01X100365Y8318D01*
G01X100520Y8369D01*
G01X100624Y8473D01*
G01X99555Y9199D02*
G01X99451Y9253D01*
G01X99296Y9408D01*
G01X99296Y8318D01*
G01X98953Y9199D02*
G01X98849Y9253D01*
G01X98691Y9408D01*
G01X98691Y8318D01*
G01X98348Y9199D02*
G01X98247Y9253D01*
G01X98089Y9408D01*
G01X98089Y8318D01*
G01X97124Y9408D02*
G01X97642Y9408D01*
G01X97696Y8940D01*
G01X97642Y8991D01*
G01X97487Y9044D01*
G01X97332Y9044D01*
G01X97175Y8991D01*
G01X97071Y8890D01*
G01X97020Y8732D01*
G01X97020Y8628D01*
G01X97071Y8473D01*
G01X97175Y8369D01*
G01X97332Y8318D01*
G01X97487Y8318D01*
G01X97642Y8369D01*
G01X97696Y8420D01*
G01X97746Y8524D01*
G01X95877Y9199D02*
G01X95773Y9253D01*
G01X95618Y9408D01*
G01X95618Y8318D01*
G01X94109Y9616D02*
G01X94213Y9512D01*
G01X94317Y9357D01*
G01X94421Y9149D01*
G01X94475Y8890D01*
G01X94475Y8681D01*
G01X94421Y8420D01*
G01X94317Y8214D01*
G01X94213Y8056D01*
G01X94109Y7952D01*
G01X93766Y9408D02*
G01X93766Y8318D01*
G01X93766Y9408D02*
G01X93299Y9408D01*
G01X93144Y9357D01*
G01X93091Y9304D01*
G01X93040Y9199D01*
G01X93040Y9095D01*
G01X93091Y8991D01*
G01X93144Y8940D01*
G01X93299Y8890D01*
G01X93766Y8890D01*
G01X93403Y8890D02*
G01X93040Y8318D01*
G01X92697Y9408D02*
G01X92697Y8318D01*
G01X92697Y9408D02*
G01X92021Y9408D01*
G01X92697Y8890D02*
G01X92280Y8890D01*
G01X92697Y8318D02*
G01X92021Y8318D01*
G01X91678Y9408D02*
G01X91262Y8318D01*
G01X90848Y9408D02*
G01X91262Y8318D01*
G01X90505Y9408D02*
G01X90505Y8318D01*
G01X90505Y9408D02*
G01X90037Y9408D01*
G01X89880Y9357D01*
G01X89829Y9304D01*
G01X89776Y9199D01*
G01X89776Y9044D01*
G01X89829Y8940D01*
G01X89880Y8890D01*
G01X90037Y8836D01*
G01X90505Y8836D01*
G01X88582Y9149D02*
G01X88582Y9199D01*
G01X88531Y9304D01*
G01X88478Y9357D01*
G01X88374Y9408D01*
G01X88165Y9408D01*
G01X88061Y9357D01*
G01X88011Y9304D01*
G01X87960Y9199D01*
G01X87960Y9095D01*
G01X88011Y8991D01*
G01X88115Y8836D01*
G01X88633Y8318D01*
G01X87906Y8318D01*
G01X87563Y9616D02*
G01X87459Y9512D01*
G01X87355Y9357D01*
G01X87251Y9149D01*
G01X87200Y8890D01*
G01X87200Y8681D01*
G01X87251Y8420D01*
G01X87355Y8214D01*
G01X87459Y8056D01*
G01X87563Y7952D01*
G01X102870Y7630D02*
G01X102870Y6540D01*
G01X102870Y7630D02*
G01X102402Y7630D01*
G01X102247Y7579D01*
G01X102194Y7526D01*
G01X102143Y7421D01*
G01X102143Y7266D01*
G01X102194Y7162D01*
G01X102247Y7112D01*
G01X102402Y7058D01*
G01X102870Y7058D01*
G01X101747Y7371D02*
G01X101747Y7421D01*
G01X101696Y7526D01*
G01X101643Y7579D01*
G01X101539Y7630D01*
G01X101333Y7630D01*
G01X101229Y7579D01*
G01X101175Y7526D01*
G01X101125Y7421D01*
G01X101125Y7317D01*
G01X101175Y7213D01*
G01X101279Y7058D01*
G01X101800Y6540D01*
G01X101071Y6540D01*
G01X54747Y4945D02*
G01X53657Y4945D01*
G01X54747Y4945D02*
G01X54747Y5413D01*
G01X54696Y5568D01*
G01X54643Y5621D01*
G01X54538Y5672D01*
G01X54383Y5672D01*
G01X54279Y5621D01*
G01X54229Y5568D01*
G01X54175Y5413D01*
G01X54175Y4945D01*
G01X54747Y6015D02*
G01X53657Y6015D01*
G01X54747Y6015D02*
G01X53657Y6431D01*
G01X54747Y6848D02*
G01X53657Y6431D01*
G01X54747Y6848D02*
G01X53657Y6848D01*
G01X54488Y7242D02*
G01X54538Y7242D01*
G01X54643Y7295D01*
G01X54696Y7346D01*
G01X54747Y7450D01*
G01X54747Y7658D01*
G01X54696Y7762D01*
G01X54643Y7813D01*
G01X54538Y7866D01*
G01X54434Y7866D01*
G01X54330Y7813D01*
G01X54175Y7709D01*
G01X53657Y7191D01*
G01X53657Y7917D01*
G01X54747Y8882D02*
G01X54747Y8364D01*
G01X54279Y8311D01*
G01X54330Y8364D01*
G01X54383Y8519D01*
G01X54383Y8677D01*
G01X54330Y8832D01*
G01X54229Y8936D01*
G01X54071Y8987D01*
G01X53967Y8987D01*
G01X53812Y8936D01*
G01X53708Y8832D01*
G01X53657Y8677D01*
G01X53657Y8519D01*
G01X53708Y8364D01*
G01X53759Y8311D01*
G01X53863Y8260D01*
G01X52969Y4945D02*
G01X51879Y4945D01*
G01X52969Y4945D02*
G01X52969Y5413D01*
G01X52918Y5568D01*
G01X52865Y5621D01*
G01X52760Y5672D01*
G01X52605Y5672D01*
G01X52501Y5621D01*
G01X52451Y5568D01*
G01X52397Y5413D01*
G01X52397Y4945D01*
G01X52760Y6015D02*
G01X52814Y6119D01*
G01X52969Y6276D01*
G01X51879Y6276D01*
G01X52969Y7137D02*
G01X52242Y6619D01*
G01X52242Y7397D01*
G01X52969Y7137D02*
G01X51879Y7137D01*
G01X15367Y9154D02*
G01X15367Y8064D01*
G01X15367Y9154D02*
G01X14950Y8064D01*
G01X14536Y9154D02*
G01X14950Y8064D01*
G01X14536Y9154D02*
G01X14536Y8064D01*
G01X13776Y9154D02*
G01X14193Y8064D01*
G01X13776Y9154D02*
G01X13360Y8064D01*
G01X14036Y8427D02*
G01X13517Y8427D01*
G01X13017Y9154D02*
G01X12291Y8064D01*
G01X12291Y9154D02*
G01X13017Y8064D01*
G01X11844Y9154D02*
G01X11272Y9154D01*
G01X11584Y8737D01*
G01X11430Y8737D01*
G01X11325Y8686D01*
G01X11272Y8636D01*
G01X11221Y8478D01*
G01X11221Y8374D01*
G01X11272Y8219D01*
G01X11376Y8115D01*
G01X11531Y8064D01*
G01X11689Y8064D01*
G01X11844Y8115D01*
G01X11897Y8166D01*
G01X11948Y8270D01*
G01X10878Y8945D02*
G01X10774Y8999D01*
G01X10617Y9154D01*
G01X10617Y8064D01*
G01X10015Y9154D02*
G01X10172Y9103D01*
G01X10223Y8999D01*
G01X10223Y8895D01*
G01X10172Y8790D01*
G01X10068Y8737D01*
G01X9860Y8686D01*
G01X9702Y8636D01*
G01X9601Y8531D01*
G01X9547Y8427D01*
G01X9547Y8270D01*
G01X9601Y8166D01*
G01X9652Y8115D01*
G01X9806Y8064D01*
G01X10015Y8064D01*
G01X10172Y8115D01*
G01X10223Y8166D01*
G01X10274Y8270D01*
G01X10274Y8427D01*
G01X10223Y8531D01*
G01X10119Y8636D01*
G01X9964Y8686D01*
G01X9756Y8737D01*
G01X9652Y8790D01*
G01X9601Y8895D01*
G01X9601Y8999D01*
G01X9652Y9103D01*
G01X9806Y9154D01*
G01X10015Y9154D01*
G01X8582Y8999D02*
G01X8633Y9103D01*
G01X8788Y9154D01*
G01X8892Y9154D01*
G01X9050Y9103D01*
G01X9154Y8945D01*
G01X9204Y8686D01*
G01X9204Y8427D01*
G01X9154Y8219D01*
G01X9050Y8115D01*
G01X8892Y8064D01*
G01X8841Y8064D01*
G01X8686Y8115D01*
G01X8582Y8219D01*
G01X8529Y8374D01*
G01X8529Y8427D01*
G01X8582Y8582D01*
G01X8686Y8686D01*
G01X8841Y8737D01*
G01X8892Y8737D01*
G01X9050Y8686D01*
G01X9154Y8582D01*
G01X9204Y8427D01*
G01X7564Y9154D02*
G01X8082Y9154D01*
G01X8135Y8686D01*
G01X8082Y8737D01*
G01X7927Y8790D01*
G01X7772Y8790D01*
G01X7614Y8737D01*
G01X7510Y8636D01*
G01X7459Y8478D01*
G01X7459Y8374D01*
G01X7510Y8219D01*
G01X7614Y8115D01*
G01X7772Y8064D01*
G01X7927Y8064D01*
G01X8082Y8115D01*
G01X8135Y8166D01*
G01X8186Y8270D01*
G01X5953Y9362D02*
G01X6057Y9258D01*
G01X6159Y9103D01*
G01X6263Y8895D01*
G01X6316Y8636D01*
G01X6316Y8427D01*
G01X6263Y8166D01*
G01X6159Y7960D01*
G01X6057Y7802D01*
G01X5953Y7698D01*
G01X5610Y9154D02*
G01X5610Y8064D01*
G01X5610Y9154D02*
G01X5143Y9154D01*
G01X4986Y9103D01*
G01X4935Y9050D01*
G01X4881Y8945D01*
G01X4881Y8841D01*
G01X4935Y8737D01*
G01X4986Y8686D01*
G01X5143Y8636D01*
G01X5610Y8636D01*
G01X5245Y8636D02*
G01X4881Y8064D01*
G01X3916Y8790D02*
G01X3916Y8064D01*
G01X3916Y8636D02*
G01X4020Y8737D01*
G01X4124Y8790D01*
G01X4279Y8790D01*
G01X4384Y8737D01*
G01X4488Y8636D01*
G01X4538Y8478D01*
G01X4538Y8374D01*
G01X4488Y8219D01*
G01X4384Y8115D01*
G01X4279Y8064D01*
G01X4124Y8064D01*
G01X4020Y8115D01*
G01X3916Y8219D01*
G01X2948Y9154D02*
G01X2948Y8064D01*
G01X2948Y8636D02*
G01X3053Y8737D01*
G01X3157Y8790D01*
G01X3314Y8790D01*
G01X3416Y8737D01*
G01X3520Y8636D01*
G01X3573Y8478D01*
G01X3573Y8374D01*
G01X3520Y8219D01*
G01X3416Y8115D01*
G01X3314Y8064D01*
G01X3157Y8064D01*
G01X3053Y8115D01*
G01X2948Y8219D01*
G01X2606Y9154D02*
G01X2555Y9103D01*
G01X2501Y9154D01*
G01X2555Y9207D01*
G01X2606Y9154D01*
G01X2555Y8790D02*
G01X2555Y8064D01*
G01X1536Y8790D02*
G01X1536Y8064D01*
G01X1536Y8636D02*
G01X1640Y8737D01*
G01X1744Y8790D01*
G01X1899Y8790D01*
G01X2004Y8737D01*
G01X2108Y8636D01*
G01X2159Y8478D01*
G01X2159Y8374D01*
G01X2108Y8219D01*
G01X2004Y8115D01*
G01X1899Y8064D01*
G01X1744Y8064D01*
G01X1640Y8115D01*
G01X1536Y8219D01*
G01X1193Y8790D02*
G01X1193Y8064D01*
G01X1193Y8582D02*
G01X1038Y8737D01*
G01X934Y8790D01*
G01X777Y8790D01*
G01X673Y8737D01*
G01X622Y8582D01*
G01X622Y8064D01*
G01X124Y9154D02*
G01X124Y8270D01*
G01X71Y8115D01*
G01X-33Y8064D01*
G01X-137Y8064D01*
G01X279Y8790D02*
G01X-83Y8790D01*
G01X-480Y9362D02*
G01X-584Y9258D01*
G01X-685Y9103D01*
G01X-789Y8895D01*
G01X-843Y8636D01*
G01X-843Y8427D01*
G01X-789Y8166D01*
G01X-685Y7960D01*
G01X-584Y7802D01*
G01X-480Y7698D01*
G01X15367Y7376D02*
G01X15367Y6286D01*
G01X15367Y7376D02*
G01X14899Y7376D01*
G01X14744Y7325D01*
G01X14691Y7272D01*
G01X14640Y7167D01*
G01X14640Y7012D01*
G01X14691Y6908D01*
G01X14744Y6858D01*
G01X14899Y6804D01*
G01X15367Y6804D01*
G01X13672Y7221D02*
G01X13726Y7325D01*
G01X13881Y7376D01*
G01X13985Y7376D01*
G01X14140Y7325D01*
G01X14244Y7167D01*
G01X14297Y6908D01*
G01X14297Y6649D01*
G01X14244Y6441D01*
G01X14140Y6337D01*
G01X13985Y6286D01*
G01X13931Y6286D01*
G01X13776Y6337D01*
G01X13672Y6441D01*
G01X13622Y6596D01*
G01X13622Y6649D01*
G01X13672Y6804D01*
G01X13776Y6908D01*
G01X13931Y6959D01*
G01X13985Y6959D01*
G01X14140Y6908D01*
G01X14244Y6804D01*
G01X14297Y6649D01*
G01X147447Y16692D02*
G01X147342Y16746D01*
G01X147187Y16901D01*
G01X147187Y15811D01*
G01X146532Y16901D02*
G01X146687Y16850D01*
G01X146791Y16692D01*
G01X146845Y16433D01*
G01X146845Y16278D01*
G01X146791Y16017D01*
G01X146687Y15862D01*
G01X146532Y15811D01*
G01X146428Y15811D01*
G01X146273Y15862D01*
G01X146169Y16017D01*
G01X146116Y16278D01*
G01X146116Y16433D01*
G01X146169Y16692D01*
G01X146273Y16850D01*
G01X146428Y16901D01*
G01X146532Y16901D01*
G01X145773Y16901D02*
G01X145773Y15811D01*
G01X145254Y16537D02*
G01X145773Y16017D01*
G01X145567Y16225D02*
G01X145201Y15811D01*
G01X147447Y15123D02*
G01X147447Y14033D01*
G01X147447Y15123D02*
G01X146979Y15123D01*
G01X146824Y15072D01*
G01X146771Y15019D01*
G01X146720Y14914D01*
G01X146720Y14810D01*
G01X146771Y14706D01*
G01X146824Y14655D01*
G01X146979Y14605D01*
G01X147447Y14605D01*
G01X147083Y14605D02*
G01X146720Y14033D01*
G01X146273Y15123D02*
G01X145702Y15123D01*
G01X146011Y14706D01*
G01X145856Y14706D01*
G01X145752Y14655D01*
G01X145702Y14605D01*
G01X145648Y14447D01*
G01X145648Y14343D01*
G01X145702Y14188D01*
G01X145806Y14084D01*
G01X145961Y14033D01*
G01X146116Y14033D01*
G01X146273Y14084D01*
G01X146324Y14135D01*
G01X146377Y14239D01*
G01X138801Y32258D02*
G01X139892Y32258D01*
G01X139892Y32258D02*
G01X139892Y31634D01*
G01X138801Y31291D02*
G01X139892Y31291D01*
G01X138801Y31291D02*
G01X138801Y30616D01*
G01X139321Y31291D02*
G01X139321Y30876D01*
G01X139892Y31291D02*
G01X139892Y30616D01*
G01X138801Y30273D02*
G01X139892Y30273D01*
G01X138801Y30273D02*
G01X138801Y29909D01*
G01X138853Y29753D01*
G01X138957Y29649D01*
G01X139061Y29597D01*
G01X139217Y29545D01*
G01X139477Y29545D01*
G01X139632Y29597D01*
G01X139736Y29649D01*
G01X139840Y29753D01*
G01X139892Y29909D01*
G01X139892Y30273D01*
G01X144819Y30988D02*
G01X145774Y30988D01*
G01X144819Y30988D02*
G01X144819Y30578D01*
G01X144865Y30442D01*
G01X144910Y30397D01*
G01X145001Y30351D01*
G01X145138Y30351D01*
G01X145229Y30397D01*
G01X145274Y30442D01*
G01X145319Y30578D01*
G01X145319Y30988D01*
G01X144819Y29960D02*
G01X144819Y29460D01*
G01X145183Y29733D01*
G01X145183Y29597D01*
G01X145229Y29506D01*
G01X145274Y29460D01*
G01X145410Y29415D01*
G01X145501Y29415D01*
G01X145638Y29460D01*
G01X145729Y29551D01*
G01X145774Y29688D01*
G01X145774Y29824D01*
G01X145729Y29960D01*
G01X145683Y30006D01*
G01X145592Y30051D01*
G54D10*
G01X119634Y19939D02*
G01X147574Y19939D01*
G01X147574Y2667D01*
G01X119634Y2667D01*
G01X119634Y19939D01*
G01X58039Y19812D02*
G01X85979Y19812D01*
G01X85979Y2540D01*
G01X58039Y2540D01*
G01X58039Y19812D01*
G01X88900Y19939D02*
G01X116840Y19939D01*
G01X116840Y2667D01*
G01X88900Y2667D01*
G01X88900Y19939D01*
G54D11*
G01X30676Y17405D02*
G01X55176Y17405D01*
G01X55176Y2405D01*
G01X30676Y2405D01*
G01X30676Y17405D01*
G54D10*
G01X2667Y30353D02*
G01X28067Y30353D01*
G01X28067Y2413D01*
G01X2667Y2413D01*
G01X2667Y30353D01*
M00*
M02*
