G04 Layer: TopSolderMaskLayer*
G04 EasyEDA v6.4.7, 2020-10-28T14:34:13+00:00*
G04 34375fc6649c45b8b31e222808ae9df9,aef87372a4e84f75ab74ab0294ea0b66,10*
G04 Gerber Generator version 0.2*
G04 Scale: 100 percent, Rotated: No, Reflected: No *
G04 Dimensions in millimeters *
G04 leading zeros omitted , absolute positions ,3 integer and 3 decimal *
%FSLAX33Y33*%
%MOMM*%
G90*
D02*

%ADD26C,2.503195*%
%ADD27C,2.082800*%
%ADD28R,1.778000X1.778000*%
%ADD29C,1.778000*%
%ADD30C,1.778813*%
%ADD31C,1.778203*%
%ADD33C,2.203196*%

%LPD*%
G54D26*
G01X131826Y27813D03*
G01X134366Y27813D03*
G01X136906Y27813D03*
G01X139446Y27813D03*
G54D27*
G01X151257Y22860D03*
G01X143637Y22860D03*
G01X151257Y17780D03*
G01X143637Y17780D03*
G36*
G01X153670Y29972D02*
G01X153670Y31750D01*
G01X155448Y31750D01*
G01X155448Y29972D01*
G01X153670Y29972D01*
G37*
G54D29*
G01X154559Y33401D03*
G01X154559Y35941D03*
G01X154559Y38481D03*
G54D30*
G01X154559Y41021D03*
G54D29*
G01X148844Y41021D03*
G01X148844Y38481D03*
G01X148844Y35941D03*
G54D31*
G01X148844Y33401D03*
G36*
G01X147955Y29972D02*
G01X147955Y31750D01*
G01X149733Y31750D01*
G01X149733Y29972D01*
G01X147955Y29972D01*
G37*
G54D28*
G01X136525Y41021D03*
G54D29*
G01X136525Y38481D03*
G01X136525Y35941D03*
G01X127762Y23241D03*
G01X127762Y25781D03*
G01X127762Y28321D03*
G01X127762Y30861D03*
G01X127762Y33401D03*
G01X127762Y35941D03*
G01X127762Y38481D03*
G54D28*
G01X127762Y41021D03*
G54D29*
G01X60579Y5080D03*
G01X63119Y5080D03*
G01X65659Y5080D03*
G01X68199Y5080D03*
G01X70739Y5080D03*
G01X73279Y5080D03*
G01X75819Y5080D03*
G01X78359Y5080D03*
G01X80899Y5080D03*
G36*
G01X82550Y4191D02*
G01X82550Y5969D01*
G01X84328Y5969D01*
G01X84328Y4191D01*
G01X82550Y4191D01*
G37*
G01X122174Y5207D03*
G01X124714Y5207D03*
G01X127254Y5207D03*
G01X129794Y5207D03*
G01X132334Y5207D03*
G01X134874Y5207D03*
G01X137414Y5207D03*
G01X139954Y5207D03*
G01X142494Y5207D03*
G36*
G01X144145Y4318D02*
G01X144145Y6096D01*
G01X145923Y6096D01*
G01X145923Y4318D01*
G01X144145Y4318D01*
G37*
G01X91440Y5207D03*
G01X93980Y5207D03*
G01X96520Y5207D03*
G01X99060Y5207D03*
G01X101600Y5207D03*
G01X104140Y5207D03*
G01X106680Y5207D03*
G01X109220Y5207D03*
G01X111760Y5207D03*
G36*
G01X113411Y4318D02*
G01X113411Y6096D01*
G01X115189Y6096D01*
G01X115189Y4318D01*
G01X113411Y4318D01*
G37*
G01X35306Y4945D03*
G01X37846Y4945D03*
G01X40386Y4945D03*
G01X42926Y4945D03*
G01X45466Y4945D03*
G01X48006Y4945D03*
G36*
G01X49657Y4056D02*
G01X49657Y5834D01*
G01X51435Y5834D01*
G01X51435Y4056D01*
G01X49657Y4056D01*
G37*
G01X6477Y4953D03*
G01X9017Y4953D03*
G01X11557Y4953D03*
G01X14097Y4953D03*
G01X16637Y4953D03*
G01X19177Y4953D03*
G01X21717Y4953D03*
G36*
G01X23368Y4064D02*
G01X23368Y5842D01*
G01X25146Y5842D01*
G01X25146Y4064D01*
G01X23368Y4064D01*
G37*
G36*
G01X141772Y32298D02*
G01X141772Y34503D01*
G01X143977Y34503D01*
G01X143977Y32298D01*
G01X141772Y32298D01*
G37*
G54D33*
G01X142875Y30861D03*
G54D26*
G01X142875Y43561D03*
G01X142875Y41021D03*
G01X142875Y38481D03*
G01X142875Y35941D03*
G54D29*
G01X106553Y23495D03*
G01X104013Y23495D03*
G01X101473Y23495D03*
G01X98933Y23495D03*
G01X96393Y23495D03*
G01X93853Y23495D03*
G01X91313Y23495D03*
G01X88773Y23495D03*
G01X86233Y23495D03*
G01X83693Y23495D03*
G01X81153Y23495D03*
G01X78613Y23495D03*
G01X76073Y23495D03*
G01X73533Y23495D03*
G01X70993Y23495D03*
G01X68453Y23495D03*
G01X65913Y23495D03*
G01X63373Y23495D03*
G01X60833Y23495D03*
G01X58293Y23495D03*
G36*
G01X57404Y20066D02*
G01X57404Y21844D01*
G01X59182Y21844D01*
G01X59182Y20066D01*
G01X57404Y20066D01*
G37*
G01X60833Y20955D03*
G01X63373Y20955D03*
G01X65913Y20955D03*
G01X68453Y20955D03*
G01X70993Y20955D03*
G01X73533Y20955D03*
G01X76073Y20955D03*
G01X78613Y20955D03*
G01X81153Y20955D03*
G01X83693Y20955D03*
G01X86233Y20955D03*
G01X88773Y20955D03*
G01X91313Y20955D03*
G01X96393Y20955D03*
G01X93853Y20955D03*
G01X98933Y20955D03*
G01X101473Y20955D03*
G01X104013Y20955D03*
G01X106553Y20955D03*
M00*
M02*
